<svg width="957" height="115" viewBox="0 0 957 115" fill="none" xmlns="http://www.w3.org/2000/svg">
<g id="full-box">
<g id="Box">
<g id="StageFour">
<line id="Line 4" x1="31.4568" y1="103.35" x2="939" y2="103.35" stroke="white"/>
</g>
<g id="StageThree">
<line id="Line 2" x1="30.5" y1="12" x2="30.5" y2="103.85" stroke="white"/>
<line id="Line 3" x1="939.015" y1="12" x2="939.015" y2="103.85" stroke="white"/>
</g>
<g id="StageTwo">
<line id="Line 1" x1="488.385" y1="12.5" x2="29.9999" y2="12.5" stroke="white"/>
<line id="Line 1_2" x1="939" y1="12.5" x2="480.615" y2="12.5" stroke="white"/>
</g>
</g>
<g id="we work with world-renowned companies">
<path d="M120.694 69.8368L114.545 49.655H117.804L122.166 65.1067H122.376L126.686 49.655H129.997L134.254 65.0541H134.464L138.826 49.655H142.085L135.936 69.8368H132.887L128.473 54.3325H128.157L123.742 69.8368H120.694ZM153.959 70.2572C152.015 70.2572 150.337 69.828 148.927 68.9696C147.526 68.1024 146.444 66.8936 145.682 65.3432C144.928 63.784 144.552 61.9708 144.552 59.9036C144.552 57.8363 144.928 56.0143 145.682 54.4376C146.444 52.8522 147.504 51.6171 148.861 50.7324C150.228 49.8389 151.822 49.3922 153.644 49.3922C154.695 49.3922 155.733 49.5674 156.758 49.9178C157.783 50.2681 158.716 50.8375 159.557 51.6259C160.398 52.4054 161.068 53.4391 161.567 54.7267C162.066 56.0143 162.316 57.5998 162.316 59.4831V60.797H146.759V58.1166H159.163C159.163 56.9779 158.935 55.9618 158.479 55.0683C158.033 54.1749 157.393 53.4697 156.561 52.9529C155.738 52.4361 154.765 52.1777 153.644 52.1777C152.409 52.1777 151.34 52.4843 150.438 53.0974C149.545 53.7018 148.857 54.4902 148.375 55.4625C147.893 56.4348 147.653 57.4772 147.653 58.5896V60.3766C147.653 61.9007 147.915 63.1927 148.441 64.2526C148.975 65.3038 149.715 66.1053 150.661 66.6571C151.607 67.2002 152.707 67.4717 153.959 67.4717C154.774 67.4717 155.51 67.3579 156.167 67.1301C156.832 66.8936 157.406 66.5432 157.888 66.079C158.37 65.606 158.742 65.0191 159.005 64.3183L162.001 65.1592C161.685 66.1753 161.155 67.0688 160.411 67.8396C159.666 68.6017 158.746 69.1974 157.652 69.6266C156.557 70.047 155.326 70.2572 153.959 70.2572ZM182.012 69.8368L175.862 49.655H179.121L183.483 65.1067H183.693L188.003 49.655H191.314L195.571 65.0541H195.781L200.144 49.655H203.402L197.253 69.8368H194.205L189.79 54.3325H189.475L185.06 69.8368H182.012ZM215.014 70.2572C213.192 70.2572 211.593 69.8237 210.218 68.9565C208.852 68.0893 207.783 66.8761 207.012 65.3169C206.25 63.7577 205.869 61.9357 205.869 59.851C205.869 57.7487 206.25 55.9136 207.012 54.3457C207.783 52.7777 208.852 51.5602 210.218 50.693C211.593 49.8258 213.192 49.3922 215.014 49.3922C216.836 49.3922 218.43 49.8258 219.797 50.693C221.172 51.5602 222.241 52.7777 223.003 54.3457C223.773 55.9136 224.159 57.7487 224.159 59.851C224.159 61.9357 223.773 63.7577 223.003 65.3169C222.241 66.8761 221.172 68.0893 219.797 68.9565C218.43 69.8237 216.836 70.2572 215.014 70.2572ZM215.014 67.4717C216.398 67.4717 217.537 67.117 218.43 66.4075C219.324 65.6979 219.985 64.7651 220.414 63.6088C220.843 62.4526 221.058 61.2 221.058 59.851C221.058 58.502 220.843 57.2451 220.414 56.08C219.985 54.915 219.324 53.9734 218.43 53.2551C217.537 52.5368 216.398 52.1777 215.014 52.1777C213.63 52.1777 212.491 52.5368 211.598 53.2551C210.704 53.9734 210.043 54.915 209.614 56.08C209.185 57.2451 208.97 58.502 208.97 59.851C208.97 61.2 209.185 62.4526 209.614 63.6088C210.043 64.7651 210.704 65.6979 211.598 66.4075C212.491 67.117 213.63 67.4717 215.014 67.4717ZM228.892 69.8368V49.655H231.888V52.7033H232.098C232.466 51.7047 233.132 50.8944 234.095 50.2725C235.059 49.6506 236.145 49.3396 237.354 49.3396C237.582 49.3396 237.866 49.344 238.208 49.3528C238.55 49.3615 238.808 49.3747 238.983 49.3922V52.5456C238.878 52.5193 238.637 52.4799 238.261 52.4273C237.893 52.366 237.503 52.3354 237.091 52.3354C236.11 52.3354 235.234 52.5412 234.463 52.9529C233.701 53.3558 233.097 53.9165 232.65 54.6347C232.212 55.3442 231.993 56.1545 231.993 57.0655V69.8368H228.892ZM245.549 62.4788L245.497 58.6422H246.128L254.957 49.655H258.794L249.386 59.1678H249.123L245.549 62.4788ZM242.659 69.8368V42.9277H245.76V69.8368H242.659ZM255.483 69.8368L247.599 59.851L249.807 57.6962L259.424 69.8368H255.483ZM277.764 69.8368L271.614 49.655H274.873L279.235 65.1067H279.445L283.755 49.655H287.066L291.323 65.0541H291.533L295.896 49.655H299.154L293.005 69.8368H289.957L285.542 54.3325H285.227L280.812 69.8368H277.764ZM303.254 69.8368V49.655H306.354V69.8368H303.254ZM304.83 46.2913C304.226 46.2913 303.705 46.0855 303.267 45.6738C302.838 45.2621 302.623 44.7672 302.623 44.1891C302.623 43.6109 302.838 43.116 303.267 42.7043C303.705 42.2926 304.226 42.0868 304.83 42.0868C305.435 42.0868 305.952 42.2926 306.381 42.7043C306.819 43.116 307.038 43.6109 307.038 44.1891C307.038 44.7672 306.819 45.2621 306.381 45.6738C305.952 46.0855 305.435 46.2913 304.83 46.2913ZM320.811 49.655V52.2828H310.352V49.655H320.811ZM313.4 44.8197H316.501V64.0555C316.501 64.9315 316.628 65.5884 316.882 66.0264C317.145 66.4556 317.478 66.7447 317.881 66.8936C318.293 67.0338 318.726 67.1038 319.182 67.1038C319.523 67.1038 319.804 67.0863 320.023 67.0513C320.241 67.0075 320.417 66.9724 320.548 66.9462L321.179 69.7317C320.969 69.8105 320.675 69.8893 320.298 69.9682C319.922 70.0558 319.444 70.0996 318.866 70.0996C317.99 70.0996 317.132 69.9112 316.291 69.5346C315.459 69.1579 314.767 68.5842 314.215 67.8134C313.672 67.0425 313.4 66.0702 313.4 64.8965V44.8197ZM329.01 57.6962V69.8368H325.909V42.9277H329.01V52.8084H329.273C329.746 51.766 330.455 50.9382 331.401 50.3251C332.356 49.7032 333.626 49.3922 335.211 49.3922C336.587 49.3922 337.791 49.6681 338.825 50.22C339.858 50.763 340.66 51.5996 341.229 52.7295C341.807 53.8508 342.096 55.2786 342.096 57.0129V69.8368H338.996V57.2232C338.996 55.6202 338.579 54.3807 337.747 53.5048C336.924 52.6201 335.781 52.1777 334.318 52.1777C333.302 52.1777 332.391 52.3923 331.585 52.8215C330.788 53.2507 330.157 53.877 329.693 54.7004C329.237 55.5238 329.01 56.5224 329.01 57.6962ZM678.164 70.2572C676.272 70.2572 674.643 69.8105 673.277 68.917C671.91 68.0236 670.859 66.7929 670.123 65.2249C669.387 63.657 669.019 61.8657 669.019 59.851C669.019 57.8013 669.396 55.9924 670.149 54.4245C670.912 52.8478 671.971 51.6171 673.329 50.7324C674.696 49.8389 676.29 49.3922 678.112 49.3922C679.531 49.3922 680.81 49.655 681.948 50.1805C683.087 50.7061 684.02 51.4419 684.747 52.3879C685.474 53.334 685.925 54.4376 686.1 55.699H683C682.763 54.7793 682.238 53.9646 681.423 53.2551C680.617 52.5368 679.531 52.1777 678.164 52.1777C676.956 52.1777 675.896 52.493 674.985 53.1237C674.082 53.7456 673.377 54.626 672.869 55.7647C672.37 56.8947 672.12 58.2217 672.12 59.7459C672.12 61.3051 672.366 62.6628 672.856 63.819C673.355 64.9753 674.056 65.8731 674.958 66.5126C675.869 67.152 676.938 67.4717 678.164 67.4717C678.97 67.4717 679.702 67.3316 680.359 67.0513C681.016 66.771 681.572 66.368 682.027 65.8425C682.483 65.3169 682.807 64.6862 683 63.9504H686.1C685.925 65.1417 685.492 66.2148 684.8 67.1695C684.116 68.1156 683.21 68.8689 682.08 69.4295C680.959 69.9813 679.653 70.2572 678.164 70.2572ZM698.832 70.2572C697.01 70.2572 695.412 69.8237 694.037 68.9565C692.67 68.0893 691.601 66.8761 690.831 65.3169C690.068 63.7577 689.687 61.9357 689.687 59.851C689.687 57.7487 690.068 55.9136 690.831 54.3457C691.601 52.7777 692.67 51.5602 694.037 50.693C695.412 49.8258 697.01 49.3922 698.832 49.3922C700.654 49.3922 702.249 49.8258 703.615 50.693C704.99 51.5602 706.059 52.7777 706.821 54.3457C707.592 55.9136 707.977 57.7487 707.977 59.851C707.977 61.9357 707.592 63.7577 706.821 65.3169C706.059 66.8761 704.99 68.0893 703.615 68.9565C702.249 69.8237 700.654 70.2572 698.832 70.2572ZM698.832 67.4717C700.216 67.4717 701.355 67.117 702.249 66.4075C703.142 65.6979 703.803 64.7651 704.233 63.6088C704.662 62.4526 704.876 61.2 704.876 59.851C704.876 58.502 704.662 57.2451 704.233 56.08C703.803 54.915 703.142 53.9734 702.249 53.2551C701.355 52.5368 700.216 52.1777 698.832 52.1777C697.448 52.1777 696.31 52.5368 695.416 53.2551C694.523 53.9734 693.861 54.915 693.432 56.08C693.003 57.2451 692.788 58.502 692.788 59.851C692.788 61.2 693.003 62.4526 693.432 63.6088C693.861 64.7651 694.523 65.6979 695.416 66.4075C696.31 67.117 697.448 67.4717 698.832 67.4717ZM712.711 69.8368V49.655H715.706V52.8084H715.969C716.39 51.731 717.068 50.8944 718.006 50.2988C718.943 49.6944 720.069 49.3922 721.383 49.3922C722.714 49.3922 723.822 49.6944 724.707 50.2988C725.6 50.8944 726.297 51.731 726.796 52.8084H727.006C727.523 51.766 728.298 50.9382 729.332 50.3251C730.365 49.7032 731.605 49.3922 733.05 49.3922C734.855 49.3922 736.331 49.9572 737.478 51.0871C738.626 52.2084 739.199 53.9559 739.199 56.3297V69.8368H736.098V56.3297C736.098 54.8406 735.691 53.7763 734.876 53.1369C734.062 52.4974 733.103 52.1777 731.999 52.1777C730.58 52.1777 729.481 52.6069 728.701 53.4653C727.921 54.315 727.532 55.3924 727.532 56.6976V69.8368H724.378V56.0143C724.378 54.8669 724.006 53.9427 723.261 53.242C722.517 52.5325 721.558 52.1777 720.384 52.1777C719.578 52.1777 718.825 52.3923 718.124 52.8215C717.432 53.2507 716.871 53.8464 716.442 54.6085C716.022 55.3618 715.811 56.2333 715.811 57.2232V69.8368H712.711ZM744.869 77.405V49.655H747.865V52.8609H748.232C748.46 52.5106 748.776 52.0638 749.178 51.5207C749.59 50.9689 750.177 50.4784 750.939 50.0492C751.71 49.6112 752.752 49.3922 754.066 49.3922C755.766 49.3922 757.263 49.817 758.56 50.6667C759.856 51.5164 760.868 52.7208 761.595 54.28C762.322 55.8392 762.686 57.6786 762.686 59.7984C762.686 61.9358 762.322 63.7884 761.595 65.3563C760.868 66.9155 759.861 68.1243 758.573 68.9827C757.285 69.8324 755.801 70.2572 754.119 70.2572C752.822 70.2572 751.784 70.0426 751.005 69.6134C750.225 69.1755 749.625 68.6805 749.205 68.1287C748.784 67.5681 748.46 67.1038 748.232 66.7359H747.97V77.405H744.869ZM747.917 59.7459C747.917 61.27 748.14 62.6146 748.587 63.7796C749.034 64.9359 749.687 65.8425 750.545 66.4994C751.403 67.1476 752.455 67.4717 753.698 67.4717C754.995 67.4717 756.077 67.1301 756.944 66.4469C757.82 65.7549 758.477 64.8264 758.915 63.6614C759.361 62.4876 759.585 61.1824 759.585 59.7459C759.585 58.3268 759.366 57.048 758.928 55.9092C758.499 54.7617 757.846 53.8551 756.97 53.1894C756.103 52.5149 755.012 52.1777 753.698 52.1777C752.437 52.1777 751.377 52.4974 750.519 53.1369C749.66 53.7675 749.012 54.6523 748.574 55.791C748.136 56.921 747.917 58.2393 747.917 59.7459ZM773.355 70.3098C772.076 70.3098 770.915 70.0689 769.873 69.5871C768.83 69.0966 768.003 68.3915 767.389 67.4717C766.776 66.5432 766.47 65.422 766.47 64.1081C766.47 62.9518 766.697 62.0146 767.153 61.2963C767.608 60.5693 768.217 59.9999 768.979 59.5882C769.741 59.1765 770.582 58.8699 771.502 58.6685C772.431 58.4582 773.363 58.2918 774.301 58.1692C775.527 58.0115 776.521 57.8933 777.283 57.8144C778.054 57.7268 778.615 57.5823 778.965 57.3808C779.324 57.1794 779.504 56.829 779.504 56.3297V56.2246C779.504 54.9282 779.149 53.9208 778.439 53.2026C777.739 52.4843 776.674 52.1251 775.247 52.1251C773.766 52.1251 772.606 52.4492 771.765 53.0974C770.924 53.7456 770.333 54.4376 769.991 55.1734L767.048 54.1223C767.573 52.896 768.274 51.9412 769.15 51.258C770.035 50.566 770.998 50.0842 772.041 49.8126C773.092 49.5323 774.125 49.3922 775.142 49.3922C775.79 49.3922 776.534 49.471 777.375 49.6287C778.225 49.7776 779.044 50.0886 779.832 50.5616C780.629 51.0346 781.291 51.7485 781.816 52.7033C782.342 53.6581 782.605 54.9369 782.605 56.5399V69.8368H779.504V67.1038H779.346C779.136 67.5418 778.785 68.0104 778.295 68.5097C777.804 69.009 777.152 69.4339 776.337 69.7842C775.523 70.1346 774.528 70.3098 773.355 70.3098ZM773.828 67.5243C775.054 67.5243 776.088 67.2834 776.928 66.8016C777.778 66.3199 778.418 65.6979 778.847 64.9359C779.285 64.1738 779.504 63.3723 779.504 62.5314V59.6933C779.372 59.851 779.083 59.9955 778.637 60.1269C778.199 60.2496 777.691 60.359 777.112 60.4554C776.543 60.543 775.987 60.6218 775.444 60.6919C774.909 60.7532 774.476 60.8058 774.143 60.8496C773.337 60.9547 772.584 61.1255 771.883 61.362C771.191 61.5898 770.63 61.9358 770.201 62.4C769.781 62.8555 769.571 63.4774 769.571 64.2658C769.571 65.3432 769.969 66.1578 770.766 66.7097C771.572 67.2527 772.593 67.5243 773.828 67.5243ZM791.365 57.6962V69.8368H788.264V49.655H791.26V52.8084H791.523C791.996 51.7835 792.714 50.9601 793.678 50.3382C794.641 49.7075 795.885 49.3922 797.409 49.3922C798.776 49.3922 799.971 49.6725 800.996 50.2331C802.021 50.7849 802.818 51.6259 803.388 52.7558C803.957 53.877 804.242 55.2961 804.242 57.0129V69.8368H801.141V57.2232C801.141 55.6377 800.729 54.4026 799.906 53.5179C799.082 52.6244 797.952 52.1777 796.516 52.1777C795.526 52.1777 794.641 52.3923 793.862 52.8215C793.091 53.2507 792.482 53.877 792.035 54.7004C791.589 55.5238 791.365 56.5224 791.365 57.6962ZM809.908 69.8368V49.655H813.009V69.8368H809.908ZM811.485 46.2913C810.88 46.2913 810.359 46.0855 809.921 45.6738C809.492 45.2621 809.277 44.7672 809.277 44.1891C809.277 43.6109 809.492 43.116 809.921 42.7043C810.359 42.2926 810.88 42.0868 811.485 42.0868C812.089 42.0868 812.606 42.2926 813.035 42.7043C813.473 43.116 813.692 43.6109 813.692 44.1891C813.692 44.7672 813.473 45.2621 813.035 45.6738C812.606 46.0855 812.089 46.2913 811.485 46.2913ZM827.15 70.2572C825.205 70.2572 823.528 69.828 822.117 68.9696C820.716 68.1024 819.634 66.8936 818.872 65.3432C818.119 63.784 817.742 61.9708 817.742 59.9036C817.742 57.8363 818.119 56.0143 818.872 54.4376C819.634 52.8522 820.694 51.6171 822.052 50.7324C823.418 49.8389 825.013 49.3922 826.834 49.3922C827.886 49.3922 828.924 49.5674 829.948 49.9178C830.973 50.2681 831.906 50.8375 832.747 51.6259C833.588 52.4054 834.258 53.4391 834.757 54.7267C835.257 56.0143 835.506 57.5998 835.506 59.4831V60.797H819.95V58.1166H832.353C832.353 56.9779 832.125 55.9618 831.67 55.0683C831.223 54.1749 830.584 53.4697 829.751 52.9529C828.928 52.4361 827.956 52.1777 826.834 52.1777C825.599 52.1777 824.531 52.4843 823.629 53.0974C822.735 53.7018 822.047 54.4902 821.566 55.4625C821.084 56.4348 820.843 57.4772 820.843 58.5896V60.3766C820.843 61.9007 821.106 63.1927 821.631 64.2526C822.166 65.3038 822.906 66.1053 823.852 66.6571C824.798 67.2002 825.897 67.4717 827.15 67.4717C827.964 67.4717 828.7 67.3579 829.357 67.1301C830.023 66.8936 830.597 66.5432 831.078 66.079C831.56 65.606 831.932 65.0191 832.195 64.3183L835.191 65.1592C834.876 66.1753 834.346 67.0688 833.601 67.8396C832.857 68.6017 831.937 69.1974 830.842 69.6266C829.747 70.047 828.516 70.2572 827.15 70.2572ZM854.519 54.1749L851.733 54.9632C851.558 54.499 851.3 54.0478 850.958 53.6099C850.625 53.1631 850.17 52.7952 849.592 52.5062C849.013 52.2171 848.273 52.0726 847.371 52.0726C846.136 52.0726 845.107 52.3573 844.283 52.9266C843.469 53.4872 843.061 54.2011 843.061 55.0683C843.061 55.8392 843.342 56.4479 843.902 56.8947C844.463 57.3414 845.339 57.7137 846.53 58.0115L849.526 58.7473C851.33 59.1853 852.675 59.8554 853.56 60.7576C854.444 61.6511 854.887 62.8029 854.887 64.2132C854.887 65.3695 854.554 66.4031 853.888 67.3141C853.231 68.225 852.311 68.9433 851.129 69.4689C849.946 69.9945 848.571 70.2572 847.003 70.2572C844.945 70.2572 843.241 69.8105 841.892 68.917C840.543 68.0236 839.689 66.7184 839.33 65.0016L842.273 64.2658C842.553 65.3519 843.083 66.1666 843.863 66.7097C844.651 67.2527 845.68 67.5243 846.951 67.5243C848.396 67.5243 849.543 67.2177 850.393 66.6045C851.251 65.9826 851.681 65.2381 851.681 64.3709C851.681 63.6701 851.435 63.0832 850.945 62.6102C850.454 62.1285 849.701 61.7693 848.685 61.5328L845.321 60.7445C843.473 60.3065 842.115 59.6276 841.248 58.7079C840.39 57.7794 839.961 56.6188 839.961 55.226C839.961 54.0873 840.28 53.0799 840.92 52.204C841.568 51.328 842.448 50.6404 843.561 50.1411C844.682 49.6418 845.952 49.3922 847.371 49.3922C849.368 49.3922 850.936 49.8302 852.075 50.7061C853.222 51.5821 854.037 52.7383 854.519 54.1749Z" fill="white"/>
<path d="M361.552 69.8368L356.06 49.655H361.723L364.85 63.2146H365.034L368.293 49.655H373.851L377.162 63.1358H377.332L380.407 49.655H386.057L380.578 69.8368H374.652L371.183 57.1443H370.934L367.465 69.8368H361.552ZM397.655 70.231C395.615 70.231 393.85 69.7974 392.36 68.9302C390.88 68.0542 389.737 66.8367 388.931 65.2775C388.125 63.7095 387.722 61.892 387.722 59.8247C387.722 57.74 388.125 55.918 388.931 54.3588C389.737 52.7909 390.88 51.5733 392.36 50.7061C393.85 49.8302 395.615 49.3922 397.655 49.3922C399.696 49.3922 401.457 49.8302 402.937 50.7061C404.427 51.5733 405.574 52.7909 406.38 54.3588C407.186 55.918 407.589 57.74 407.589 59.8247C407.589 61.892 407.186 63.7095 406.38 65.2775C405.574 66.8367 404.427 68.0542 402.937 68.9302C401.457 69.7974 399.696 70.231 397.655 70.231ZM397.682 65.895C398.61 65.895 399.385 65.6322 400.007 65.1067C400.629 64.5724 401.098 63.8453 401.413 62.9256C401.737 62.0058 401.899 60.9591 401.899 59.7853C401.899 58.6115 401.737 57.5648 401.413 56.645C401.098 55.7253 400.629 54.9982 400.007 54.4639C399.385 53.9296 398.61 53.6624 397.682 53.6624C396.745 53.6624 395.956 53.9296 395.317 54.4639C394.686 54.9982 394.209 55.7253 393.885 56.645C393.569 57.5648 393.412 58.6115 393.412 59.7853C393.412 60.9591 393.569 62.0058 393.885 62.9256C394.209 63.8453 394.686 64.5724 395.317 65.1067C395.956 65.6322 396.745 65.895 397.682 65.895ZM411.228 69.8368V49.655H416.655V53.1763H416.865C417.233 51.9237 417.85 50.9777 418.718 50.3382C419.585 49.69 420.583 49.3659 421.713 49.3659C421.994 49.3659 422.296 49.3834 422.62 49.4185C422.944 49.4535 423.229 49.5017 423.474 49.563V54.5296C423.211 54.4508 422.848 54.3807 422.383 54.3194C421.919 54.2581 421.494 54.2274 421.109 54.2274C420.286 54.2274 419.55 54.407 418.902 54.7661C418.262 55.1165 417.754 55.607 417.377 56.2377C417.01 56.8684 416.826 57.5954 416.826 58.4188V69.8368H411.228ZM431.965 42.9277V69.8368H426.368V42.9277H431.965ZM443.886 70.1653C442.353 70.1653 440.965 69.7711 439.721 68.9827C438.486 68.1856 437.505 67.0162 436.777 65.4746C436.059 63.9241 435.7 62.0233 435.7 59.7722C435.7 57.4597 436.072 55.537 436.817 54.0041C437.561 52.4624 438.551 51.3105 439.786 50.5484C441.03 49.7776 442.392 49.3922 443.873 49.3922C445.003 49.3922 445.944 49.5849 446.698 49.9703C447.46 50.347 448.073 50.82 448.537 51.3893C449.01 51.95 449.369 52.5018 449.614 53.0449H449.785V42.9277H455.369V69.8368H449.851V66.6045H449.614C449.352 67.1652 448.979 67.7214 448.498 68.2732C448.025 68.8163 447.407 69.2674 446.645 69.6266C445.892 69.9857 444.972 70.1653 443.886 70.1653ZM445.66 65.7111C446.562 65.7111 447.324 65.4658 447.946 64.9753C448.576 64.476 449.058 63.7796 449.391 62.8862C449.733 61.9927 449.904 60.9459 449.904 59.7459C449.904 58.5458 449.737 57.5035 449.404 56.6188C449.071 55.734 448.59 55.0508 447.959 54.569C447.328 54.0873 446.562 53.8464 445.66 53.8464C444.74 53.8464 443.965 54.096 443.334 54.5953C442.703 55.0946 442.226 55.7866 441.902 56.6713C441.578 57.556 441.416 58.5809 441.416 59.7459C441.416 60.9197 441.578 61.9576 441.902 62.8599C442.235 63.7533 442.712 64.4541 443.334 64.9621C443.965 65.4614 444.74 65.7111 445.66 65.7111ZM472.546 56.5662V61.0072H460.274V56.5662H472.546ZM477.315 69.8368V49.655H482.742V53.1763H482.952C483.32 51.9237 483.937 50.9777 484.805 50.3382C485.672 49.69 486.67 49.3659 487.8 49.3659C488.081 49.3659 488.383 49.3834 488.707 49.4185C489.031 49.4535 489.316 49.5017 489.561 49.563V54.5296C489.298 54.4508 488.935 54.3807 488.47 54.3194C488.006 54.2581 487.581 54.2274 487.196 54.2274C486.372 54.2274 485.637 54.407 484.989 54.7661C484.349 55.1165 483.841 55.607 483.464 56.2377C483.096 56.8684 482.913 57.5954 482.913 58.4188V69.8368H477.315ZM500.713 70.231C498.637 70.231 496.85 69.8105 495.352 68.9696C493.863 68.1199 492.715 66.9199 491.91 65.3695C491.104 63.8103 490.701 61.9664 490.701 59.8379C490.701 57.7619 491.104 55.9399 491.91 54.3719C492.715 52.804 493.85 51.5821 495.313 50.7061C496.784 49.8302 498.51 49.3922 500.489 49.3922C501.821 49.3922 503.06 49.6068 504.208 50.036C505.364 50.4565 506.371 51.0915 507.23 51.9412C508.097 52.7909 508.772 53.8595 509.253 55.1472C509.735 56.426 509.976 57.9239 509.976 59.6408V61.1781H492.934V57.7093H504.707C504.707 56.9034 504.532 56.1895 504.182 55.5676C503.831 54.9457 503.345 54.4595 502.723 54.1092C502.11 53.75 501.396 53.5705 500.581 53.5705C499.732 53.5705 498.978 53.7675 498.322 54.1617C497.673 54.5471 497.165 55.0683 496.797 55.7253C496.429 56.3735 496.241 57.0961 496.232 57.8933V61.1912C496.232 62.1898 496.416 63.0526 496.784 63.7796C497.161 64.5067 497.691 65.0673 498.374 65.4614C499.057 65.8556 499.868 66.0527 500.805 66.0527C501.427 66.0527 501.996 65.9651 502.513 65.7899C503.03 65.6147 503.472 65.3519 503.84 65.0016C504.208 64.6512 504.488 64.222 504.681 63.7139L509.858 64.0555C509.595 65.2994 509.056 66.3856 508.242 67.3141C507.436 68.2338 506.393 68.9521 505.114 69.4689C503.844 69.9769 502.377 70.231 500.713 70.231ZM519.226 58.1692V69.8368H513.629V49.655H518.963V53.2157H519.2C519.646 52.0419 520.395 51.1134 521.447 50.4302C522.498 49.7382 523.772 49.3922 525.27 49.3922C526.672 49.3922 527.893 49.6988 528.936 50.3119C529.978 50.9251 530.788 51.801 531.367 52.9398C531.945 54.0697 532.234 55.4187 532.234 56.9866V69.8368H526.636V57.9852C526.645 56.7501 526.33 55.7866 525.69 55.0946C525.051 54.3938 524.171 54.0435 523.049 54.0435C522.296 54.0435 521.63 54.2055 521.052 54.5296C520.483 54.8537 520.036 55.3267 519.712 55.9487C519.397 56.5618 519.235 57.302 519.226 58.1692ZM545.764 70.231C543.723 70.231 541.958 69.7974 540.469 68.9302C538.988 68.0542 537.845 66.8367 537.039 65.2775C536.234 63.7095 535.831 61.892 535.831 59.8247C535.831 57.74 536.234 55.918 537.039 54.3588C537.845 52.7909 538.988 51.5733 540.469 50.7061C541.958 49.8302 543.723 49.3922 545.764 49.3922C547.805 49.3922 549.566 49.8302 551.046 50.7061C552.535 51.5733 553.682 52.7909 554.488 54.3588C555.294 55.918 555.697 57.74 555.697 59.8247C555.697 61.892 555.294 63.7095 554.488 65.2775C553.682 66.8367 552.535 68.0542 551.046 68.9302C549.566 69.7974 547.805 70.231 545.764 70.231ZM545.79 65.895C546.719 65.895 547.494 65.6322 548.116 65.1067C548.738 64.5724 549.206 63.8453 549.522 62.9256C549.846 62.0058 550.008 60.9591 550.008 59.7853C550.008 58.6115 549.846 57.5648 549.522 56.645C549.206 55.7253 548.738 54.9982 548.116 54.4639C547.494 53.9296 546.719 53.6624 545.79 53.6624C544.853 53.6624 544.065 53.9296 543.425 54.4639C542.794 54.9982 542.317 55.7253 541.993 56.645C541.678 57.5648 541.52 58.6115 541.52 59.7853C541.52 60.9591 541.678 62.0058 541.993 62.9256C542.317 63.8453 542.794 64.5724 543.425 65.1067C544.065 65.6322 544.853 65.895 545.79 65.895ZM562.812 69.8368L557.32 49.655H562.983L566.11 63.2146H566.294L569.552 49.655H575.11L578.421 63.1358H578.592L581.667 49.655H587.317L581.838 69.8368H575.912L572.443 57.1443H572.193L568.725 69.8368H562.812ZM595.9 58.1692V69.8368H590.303V49.655H595.637V53.2157H595.874C596.32 52.0419 597.069 51.1134 598.12 50.4302C599.171 49.7382 600.446 49.3922 601.944 49.3922C603.345 49.3922 604.567 49.6988 605.61 50.3119C606.652 50.9251 607.462 51.801 608.04 52.9398C608.619 54.0697 608.908 55.4187 608.908 56.9866V69.8368H603.31V57.9852C603.319 56.7501 603.004 55.7866 602.364 55.0946C601.725 54.3938 600.845 54.0435 599.723 54.0435C598.97 54.0435 598.304 54.2055 597.726 54.5296C597.157 54.8537 596.71 55.3267 596.386 55.9487C596.071 56.5618 595.909 57.302 595.9 58.1692ZM622.517 70.231C620.441 70.231 618.654 69.8105 617.156 68.9696C615.667 68.1199 614.519 66.9199 613.713 65.3695C612.907 63.8103 612.504 61.9664 612.504 59.8379C612.504 57.7619 612.907 55.9399 613.713 54.3719C614.519 52.804 615.654 51.5821 617.116 50.7061C618.588 49.8302 620.314 49.3922 622.293 49.3922C623.625 49.3922 624.864 49.6068 626.012 50.036C627.168 50.4565 628.175 51.0915 629.034 51.9412C629.901 52.7909 630.575 53.8595 631.057 55.1472C631.539 56.426 631.78 57.9239 631.78 59.6408V61.1781H614.738V57.7093H626.511C626.511 56.9034 626.336 56.1895 625.985 55.5676C625.635 54.9457 625.149 54.4595 624.527 54.1092C623.914 53.75 623.2 53.5705 622.385 53.5705C621.535 53.5705 620.782 53.7675 620.125 54.1617C619.477 54.5471 618.969 55.0683 618.601 55.7253C618.233 56.3735 618.045 57.0961 618.036 57.8933V61.1912C618.036 62.1898 618.22 63.0526 618.588 63.7796C618.965 64.5067 619.495 65.0673 620.178 65.4614C620.861 65.8556 621.671 66.0527 622.609 66.0527C623.23 66.0527 623.8 65.9651 624.317 65.7899C624.833 65.6147 625.276 65.3519 625.644 65.0016C626.012 64.6512 626.292 64.222 626.485 63.7139L631.661 64.0555C631.399 65.2994 630.86 66.3856 630.045 67.3141C629.239 68.2338 628.197 68.9521 626.918 69.4689C625.648 69.9769 624.181 70.231 622.517 70.231ZM642.869 70.1653C641.336 70.1653 639.948 69.7711 638.704 68.9827C637.469 68.1856 636.488 67.0162 635.761 65.4746C635.043 63.9241 634.683 62.0233 634.683 59.7722C634.683 57.4597 635.056 55.537 635.8 54.0041C636.545 52.4624 637.535 51.3105 638.77 50.5484C640.014 49.7776 641.376 49.3922 642.856 49.3922C643.986 49.3922 644.928 49.5849 645.681 49.9703C646.443 50.347 647.056 50.82 647.52 51.3893C647.993 51.95 648.353 52.5018 648.598 53.0449H648.769V42.9277H654.353V69.8368H648.834V66.6045H648.598C648.335 67.1652 647.963 67.7214 647.481 68.2732C647.008 68.8163 646.39 69.2674 645.628 69.6266C644.875 69.9857 643.955 70.1653 642.869 70.1653ZM644.643 65.7111C645.545 65.7111 646.307 65.4658 646.929 64.9753C647.56 64.476 648.042 63.7796 648.375 62.8862C648.716 61.9927 648.887 60.9459 648.887 59.7459C648.887 58.5458 648.721 57.5035 648.388 56.6188C648.055 55.734 647.573 55.0508 646.942 54.569C646.312 54.0873 645.545 53.8464 644.643 53.8464C643.723 53.8464 642.948 54.096 642.317 54.5953C641.687 55.0946 641.209 55.7866 640.885 56.6713C640.561 57.556 640.399 58.5809 640.399 59.7459C640.399 60.9197 640.561 61.9576 640.885 62.8599C641.218 63.7533 641.695 64.4541 642.317 64.9621C642.948 65.4614 643.723 65.7111 644.643 65.7111Z" fill="url(#paint0_linear_11_2)"/>
</g>
</g>
<defs>
<linearGradient id="paint0_linear_11_2" x1="368.5" y1="56.8367" x2="862" y2="56.8368" gradientUnits="userSpaceOnUse">
<stop stop-color="white"/>
<stop offset="1" stop-color="white" stop-opacity="0"/>
</linearGradient>
</defs>
</svg>
